<?xml version="1.0" standalone="no"?>
<!DOCTYPE svg PUBLIC "-//W3C//DTD SVG 20010904//EN"
 "http://www.w3.org/TR/2001/REC-SVG-20010904/DTD/svg10.dtd">
<svg version="1.0" xmlns="http://www.w3.org/2000/svg"
 width="1358.000000pt" height="932.000000pt" viewBox="0 0 1358.000000 932.000000"
 preserveAspectRatio="xMidYMid meet">

<g transform="translate(0.000000,932.000000) scale(0.100000,-0.100000)"
fill="#000000" stroke="none">
<path d="M0 4660 l0 -4660 6790 0 6790 0 0 4660 0 4660 -6790 0 -6790 0 0
-4660z m5730 1517 l0 -43 -86 -11 c-131 -18 -194 -71 -194 -161 0 -35 47 -195
92 -312 119 -309 643 -1588 649 -1582 12 12 489 1170 489 1186 0 22 -186 489
-242 604 -38 81 -64 119 -111 167 -68 70 -116 90 -234 102 l-63 6 0 43 0 44
770 0 770 0 0 -44 0 -43 -82 -6 c-154 -11 -230 -51 -247 -129 -11 -47 12 -134
91 -343 213 -565 583 -1513 589 -1507 6 7 518 1355 573 1507 72 202 74 338 4
401 -40 37 -86 54 -173 66 l-85 11 0 43 0 44 410 0 410 0 0 -44 0 -44 -47 -11
c-122 -31 -174 -90 -262 -301 -46 -113 -631 -1645 -1034 -2713 l-52 -138 -50
3 -50 3 -389 1013 c-214 557 -393 1009 -397 1005 -6 -6 -567 -1323 -816 -1915
l-45 -108 -47 0 -47 0 -111 278 c-474 1183 -1004 2488 -1057 2603 -35 76 -78
156 -95 178 -34 42 -109 84 -173 95 -37 7 -38 8 -38 51 l0 45 690 0 690 0 0
-43z"/>
</g>
</svg>
